<svg xmlns="http://www.w3.org/2000/svg" version="1.1" xmlns:xlink="http://www.w3.org/1999/xlink" xmlns:svgjs="http://svgjs.dev/svgjs" viewBox="0 0 800 800" opacity="0.65" width="800" height="800"><g stroke-width="0.5" stroke="hsla(261, 3%, 86%, 1.00)" fill="none"><rect width="80" height="133.33333333333334" x="0" y="0" opacity="0.15"></rect><circle r="3.75" cx="0" cy="0" fill="hsla(261, 3%, 86%, 1.00)" stroke="none"></circle><rect width="80" height="133.33333333333334" x="80" y="0" opacity="0.15"></rect><circle r="3.75" cx="80" cy="0" fill="hsla(261, 3%, 86%, 1.00)" stroke="none"></circle><rect width="80" height="133.33333333333334" x="160" y="0" opacity="0.15"></rect><circle r="3.75" cx="160" cy="0" fill="hsla(261, 3%, 86%, 1.00)" stroke="none"></circle><rect width="80" height="133.33333333333334" x="240" y="0" opacity="0.15"></rect><circle r="3.75" cx="240" cy="0" fill="hsla(261, 3%, 86%, 1.00)" stroke="none"></circle><rect width="80" height="133.33333333333334" x="320" y="0" opacity="0.15"></rect><circle r="3.75" cx="320" cy="0" fill="hsla(261, 3%, 86%, 1.00)" stroke="none"></circle><rect width="80" height="133.33333333333334" x="400" y="0" opacity="0.15"></rect><circle r="3.75" cx="400" cy="0" fill="hsla(261, 3%, 86%, 1.00)" stroke="none"></circle><rect width="80" height="133.33333333333334" x="480" y="0" opacity="0.15"></rect><circle r="3.75" cx="480" cy="0" fill="hsla(261, 3%, 86%, 1.00)" stroke="none"></circle><rect width="80" height="133.33333333333334" x="560" y="0" opacity="0.15"></rect><circle r="3.75" cx="560" cy="0" fill="hsla(261, 3%, 86%, 1.00)" stroke="none"></circle><rect width="80" height="133.33333333333334" x="640" y="0" opacity="0.15"></rect><circle r="3.75" cx="640" cy="0" fill="hsla(261, 3%, 86%, 1.00)" stroke="none"></circle><rect width="80" height="133.33333333333334" x="720" y="0" opacity="0.15"></rect><circle r="3.75" cx="720" cy="0" fill="hsla(261, 3%, 86%, 1.00)" stroke="none"></circle><rect width="80" height="133.33333333333334" x="800" y="0" opacity="0.15"></rect><circle r="3.75" cx="800" cy="0" fill="hsla(261, 3%, 86%, 1.00)" stroke="none"></circle><rect width="80" height="133.33333333333334" x="0" y="133.33333333333334" opacity="0.15"></rect><circle r="3.75" cx="0" cy="133.33333333333334" fill="hsla(261, 3%, 86%, 1.00)" stroke="none"></circle><rect width="80" height="133.33333333333334" x="80" y="133.33333333333334" opacity="0.15"></rect><circle r="3.75" cx="80" cy="133.33333333333334" fill="hsla(261, 3%, 86%, 1.00)" stroke="none"></circle><rect width="80" height="133.33333333333334" x="160" y="133.33333333333334" opacity="0.15"></rect><circle r="3.75" cx="160" cy="133.33333333333334" fill="hsla(261, 3%, 86%, 1.00)" stroke="none"></circle><rect width="80" height="133.33333333333334" x="240" y="133.33333333333334" opacity="0.15"></rect><circle r="3.75" cx="240" cy="133.33333333333334" fill="hsla(261, 3%, 86%, 1.00)" stroke="none"></circle><rect width="80" height="133.33333333333334" x="320" y="133.33333333333334" opacity="0.15"></rect><circle r="3.75" cx="320" cy="133.33333333333334" fill="hsla(261, 3%, 86%, 1.00)" stroke="none"></circle><rect width="80" height="133.33333333333334" x="400" y="133.33333333333334" opacity="0.15"></rect><circle r="3.75" cx="400" cy="133.33333333333334" fill="hsla(261, 3%, 86%, 1.00)" stroke="none"></circle><rect width="80" height="133.33333333333334" x="480" y="133.33333333333334" opacity="0.15"></rect><circle r="3.75" cx="480" cy="133.33333333333334" fill="hsla(261, 3%, 86%, 1.00)" stroke="none"></circle><rect width="80" height="133.33333333333334" x="560" y="133.33333333333334" opacity="0.15"></rect><circle r="3.75" cx="560" cy="133.33333333333334" fill="hsla(261, 3%, 86%, 1.00)" stroke="none"></circle><rect width="80" height="133.33333333333334" x="640" y="133.33333333333334" opacity="0.15"></rect><circle r="3.75" cx="640" cy="133.33333333333334" fill="hsla(261, 3%, 86%, 1.00)" stroke="none"></circle><rect width="80" height="133.33333333333334" x="720" y="133.33333333333334" opacity="0.15"></rect><circle r="3.75" cx="720" cy="133.33333333333334" fill="hsla(261, 3%, 86%, 1.00)" stroke="none"></circle><rect width="80" height="133.33333333333334" x="800" y="133.33333333333334" opacity="0.15"></rect><circle r="3.75" cx="800" cy="133.33333333333334" fill="hsla(261, 3%, 86%, 1.00)" stroke="none"></circle><rect width="80" height="133.33333333333334" x="0" y="266.6666666666667" opacity="0.15"></rect><circle r="3.75" cx="0" cy="266.6666666666667" fill="hsla(261, 3%, 86%, 1.00)" stroke="none"></circle><rect width="80" height="133.33333333333334" x="80" y="266.6666666666667" opacity="0.15"></rect><circle r="3.75" cx="80" cy="266.6666666666667" fill="hsla(261, 3%, 86%, 1.00)" stroke="none"></circle><rect width="80" height="133.33333333333334" x="160" y="266.6666666666667" opacity="0.15"></rect><circle r="3.75" cx="160" cy="266.6666666666667" fill="hsla(261, 3%, 86%, 1.00)" stroke="none"></circle><rect width="80" height="133.33333333333334" x="240" y="266.6666666666667" opacity="0.15"></rect><circle r="3.75" cx="240" cy="266.6666666666667" fill="hsla(261, 3%, 86%, 1.00)" stroke="none"></circle><rect width="80" height="133.33333333333334" x="320" y="266.6666666666667" opacity="0.15"></rect><circle r="3.75" cx="320" cy="266.6666666666667" fill="hsla(261, 3%, 86%, 1.00)" stroke="none"></circle><rect width="80" height="133.33333333333334" x="400" y="266.6666666666667" opacity="0.15"></rect><circle r="3.75" cx="400" cy="266.6666666666667" fill="hsla(261, 3%, 86%, 1.00)" stroke="none"></circle><rect width="80" height="133.33333333333334" x="480" y="266.6666666666667" opacity="0.15"></rect><circle r="3.75" cx="480" cy="266.6666666666667" fill="hsla(261, 3%, 86%, 1.00)" stroke="none"></circle><rect width="80" height="133.33333333333334" x="560" y="266.6666666666667" opacity="0.15"></rect><circle r="3.75" cx="560" cy="266.6666666666667" fill="hsla(261, 3%, 86%, 1.00)" stroke="none"></circle><rect width="80" height="133.33333333333334" x="640" y="266.6666666666667" opacity="0.15"></rect><circle r="3.75" cx="640" cy="266.6666666666667" fill="hsla(261, 3%, 86%, 1.00)" stroke="none"></circle><rect width="80" height="133.33333333333334" x="720" y="266.6666666666667" opacity="0.15"></rect><circle r="3.75" cx="720" cy="266.6666666666667" fill="hsla(261, 3%, 86%, 1.00)" stroke="none"></circle><rect width="80" height="133.33333333333334" x="800" y="266.6666666666667" opacity="0.15"></rect><circle r="3.75" cx="800" cy="266.6666666666667" fill="hsla(261, 3%, 86%, 1.00)" stroke="none"></circle><rect width="80" height="133.33333333333334" x="0" y="400" opacity="0.15"></rect><circle r="3.75" cx="0" cy="400" fill="hsla(261, 3%, 86%, 1.00)" stroke="none"></circle><rect width="80" height="133.33333333333334" x="80" y="400" opacity="0.15"></rect><circle r="3.75" cx="80" cy="400" fill="hsla(261, 3%, 86%, 1.00)" stroke="none"></circle><rect width="80" height="133.33333333333334" x="160" y="400" opacity="0.15"></rect><circle r="3.75" cx="160" cy="400" fill="hsla(261, 3%, 86%, 1.00)" stroke="none"></circle><rect width="80" height="133.33333333333334" x="240" y="400" opacity="0.15"></rect><circle r="3.75" cx="240" cy="400" fill="hsla(261, 3%, 86%, 1.00)" stroke="none"></circle><rect width="80" height="133.33333333333334" x="320" y="400" opacity="0.15"></rect><circle r="3.75" cx="320" cy="400" fill="hsla(261, 3%, 86%, 1.00)" stroke="none"></circle><rect width="80" height="133.33333333333334" x="400" y="400" opacity="0.15"></rect><circle r="3.75" cx="400" cy="400" fill="hsla(261, 3%, 86%, 1.00)" stroke="none"></circle><rect width="80" height="133.33333333333334" x="480" y="400" opacity="0.15"></rect><circle r="3.75" cx="480" cy="400" fill="hsla(261, 3%, 86%, 1.00)" stroke="none"></circle><rect width="80" height="133.33333333333334" x="560" y="400" opacity="0.15"></rect><circle r="3.75" cx="560" cy="400" fill="hsla(261, 3%, 86%, 1.00)" stroke="none"></circle><rect width="80" height="133.33333333333334" x="640" y="400" opacity="0.15"></rect><circle r="3.75" cx="640" cy="400" fill="hsla(261, 3%, 86%, 1.00)" stroke="none"></circle><rect width="80" height="133.33333333333334" x="720" y="400" opacity="0.15"></rect><circle r="3.75" cx="720" cy="400" fill="hsla(261, 3%, 86%, 1.00)" stroke="none"></circle><rect width="80" height="133.33333333333334" x="800" y="400" opacity="0.15"></rect><circle r="3.75" cx="800" cy="400" fill="hsla(261, 3%, 86%, 1.00)" stroke="none"></circle><rect width="80" height="133.33333333333334" x="0" y="533.3333333333334" opacity="0.15"></rect><circle r="3.75" cx="0" cy="533.3333333333334" fill="hsla(261, 3%, 86%, 1.00)" stroke="none"></circle><rect width="80" height="133.33333333333334" x="80" y="533.3333333333334" opacity="0.15"></rect><circle r="3.75" cx="80" cy="533.3333333333334" fill="hsla(261, 3%, 86%, 1.00)" stroke="none"></circle><rect width="80" height="133.33333333333334" x="160" y="533.3333333333334" opacity="0.15"></rect><circle r="3.75" cx="160" cy="533.3333333333334" fill="hsla(261, 3%, 86%, 1.00)" stroke="none"></circle><rect width="80" height="133.33333333333334" x="240" y="533.3333333333334" opacity="0.15"></rect><circle r="3.75" cx="240" cy="533.3333333333334" fill="hsla(261, 3%, 86%, 1.00)" stroke="none"></circle><rect width="80" height="133.33333333333334" x="320" y="533.3333333333334" opacity="0.15"></rect><circle r="3.75" cx="320" cy="533.3333333333334" fill="hsla(261, 3%, 86%, 1.00)" stroke="none"></circle><rect width="80" height="133.33333333333334" x="400" y="533.3333333333334" opacity="0.15"></rect><circle r="3.75" cx="400" cy="533.3333333333334" fill="hsla(261, 3%, 86%, 1.00)" stroke="none"></circle><rect width="80" height="133.33333333333334" x="480" y="533.3333333333334" opacity="0.15"></rect><circle r="3.75" cx="480" cy="533.3333333333334" fill="hsla(261, 3%, 86%, 1.00)" stroke="none"></circle><rect width="80" height="133.33333333333334" x="560" y="533.3333333333334" opacity="0.15"></rect><circle r="3.75" cx="560" cy="533.3333333333334" fill="hsla(261, 3%, 86%, 1.00)" stroke="none"></circle><rect width="80" height="133.33333333333334" x="640" y="533.3333333333334" opacity="0.15"></rect><circle r="3.75" cx="640" cy="533.3333333333334" fill="hsla(261, 3%, 86%, 1.00)" stroke="none"></circle><rect width="80" height="133.33333333333334" x="720" y="533.3333333333334" opacity="0.15"></rect><circle r="3.75" cx="720" cy="533.3333333333334" fill="hsla(261, 3%, 86%, 1.00)" stroke="none"></circle><rect width="80" height="133.33333333333334" x="800" y="533.3333333333334" opacity="0.15"></rect><circle r="3.75" cx="800" cy="533.3333333333334" fill="hsla(261, 3%, 86%, 1.00)" stroke="none"></circle><rect width="80" height="133.33333333333334" x="0" y="666.6666666666667" opacity="0.15"></rect><circle r="3.75" cx="0" cy="666.6666666666667" fill="hsla(261, 3%, 86%, 1.00)" stroke="none"></circle><rect width="80" height="133.33333333333334" x="80" y="666.6666666666667" opacity="0.15"></rect><circle r="3.75" cx="80" cy="666.6666666666667" fill="hsla(261, 3%, 86%, 1.00)" stroke="none"></circle><rect width="80" height="133.33333333333334" x="160" y="666.6666666666667" opacity="0.15"></rect><circle r="3.75" cx="160" cy="666.6666666666667" fill="hsla(261, 3%, 86%, 1.00)" stroke="none"></circle><rect width="80" height="133.33333333333334" x="240" y="666.6666666666667" opacity="0.15"></rect><circle r="3.75" cx="240" cy="666.6666666666667" fill="hsla(261, 3%, 86%, 1.00)" stroke="none"></circle><rect width="80" height="133.33333333333334" x="320" y="666.6666666666667" opacity="0.15"></rect><circle r="3.75" cx="320" cy="666.6666666666667" fill="hsla(261, 3%, 86%, 1.00)" stroke="none"></circle><rect width="80" height="133.33333333333334" x="400" y="666.6666666666667" opacity="0.15"></rect><circle r="3.75" cx="400" cy="666.6666666666667" fill="hsla(261, 3%, 86%, 1.00)" stroke="none"></circle><rect width="80" height="133.33333333333334" x="480" y="666.6666666666667" opacity="0.15"></rect><circle r="3.75" cx="480" cy="666.6666666666667" fill="hsla(261, 3%, 86%, 1.00)" stroke="none"></circle><rect width="80" height="133.33333333333334" x="560" y="666.6666666666667" opacity="0.15"></rect><circle r="3.75" cx="560" cy="666.6666666666667" fill="hsla(261, 3%, 86%, 1.00)" stroke="none"></circle><rect width="80" height="133.33333333333334" x="640" y="666.6666666666667" opacity="0.15"></rect><circle r="3.75" cx="640" cy="666.6666666666667" fill="hsla(261, 3%, 86%, 1.00)" stroke="none"></circle><rect width="80" height="133.33333333333334" x="720" y="666.6666666666667" opacity="0.15"></rect><circle r="3.75" cx="720" cy="666.6666666666667" fill="hsla(261, 3%, 86%, 1.00)" stroke="none"></circle><rect width="80" height="133.33333333333334" x="800" y="666.6666666666667" opacity="0.15"></rect><circle r="3.75" cx="800" cy="666.6666666666667" fill="hsla(261, 3%, 86%, 1.00)" stroke="none"></circle><rect width="80" height="133.33333333333334" x="0" y="800.0000000000001" opacity="0.15"></rect><circle r="3.75" cx="0" cy="800.0000000000001" fill="hsla(261, 3%, 86%, 1.00)" stroke="none"></circle><rect width="80" height="133.33333333333334" x="80" y="800.0000000000001" opacity="0.15"></rect><circle r="3.75" cx="80" cy="800.0000000000001" fill="hsla(261, 3%, 86%, 1.00)" stroke="none"></circle><rect width="80" height="133.33333333333334" x="160" y="800.0000000000001" opacity="0.15"></rect><circle r="3.75" cx="160" cy="800.0000000000001" fill="hsla(261, 3%, 86%, 1.00)" stroke="none"></circle><rect width="80" height="133.33333333333334" x="240" y="800.0000000000001" opacity="0.15"></rect><circle r="3.75" cx="240" cy="800.0000000000001" fill="hsla(261, 3%, 86%, 1.00)" stroke="none"></circle><rect width="80" height="133.33333333333334" x="320" y="800.0000000000001" opacity="0.15"></rect><circle r="3.75" cx="320" cy="800.0000000000001" fill="hsla(261, 3%, 86%, 1.00)" stroke="none"></circle><rect width="80" height="133.33333333333334" x="400" y="800.0000000000001" opacity="0.15"></rect><circle r="3.75" cx="400" cy="800.0000000000001" fill="hsla(261, 3%, 86%, 1.00)" stroke="none"></circle><rect width="80" height="133.33333333333334" x="480" y="800.0000000000001" opacity="0.15"></rect><circle r="3.75" cx="480" cy="800.0000000000001" fill="hsla(261, 3%, 86%, 1.00)" stroke="none"></circle><rect width="80" height="133.33333333333334" x="560" y="800.0000000000001" opacity="0.15"></rect><circle r="3.75" cx="560" cy="800.0000000000001" fill="hsla(261, 3%, 86%, 1.00)" stroke="none"></circle><rect width="80" height="133.33333333333334" x="640" y="800.0000000000001" opacity="0.15"></rect><circle r="3.75" cx="640" cy="800.0000000000001" fill="hsla(261, 3%, 86%, 1.00)" stroke="none"></circle><rect width="80" height="133.33333333333334" x="720" y="800.0000000000001" opacity="0.15"></rect><circle r="3.75" cx="720" cy="800.0000000000001" fill="hsla(261, 3%, 86%, 1.00)" stroke="none"></circle><rect width="80" height="133.33333333333334" x="800" y="800.0000000000001" opacity="0.15"></rect><circle r="3.75" cx="800" cy="800.0000000000001" fill="hsla(261, 3%, 86%, 1.00)" stroke="none"></circle></g></svg>